<svg id="Layer_1" data-name="Layer 1" xmlns="http://www.w3.org/2000/svg" viewBox="0 0 217.82 254.9"><defs><style>.cls-1,.cls-3,.cls-7{fill:#fffc94;}.cls-2{fill:#9cc2ff;}.cls-2,.cls-3,.cls-4,.cls-5,.cls-6,.cls-7{stroke:#8b31ff;stroke-linecap:round;stroke-miterlimit:10;}.cls-2,.cls-4,.cls-5{stroke-width:5.66px;}.cls-3{stroke-width:4.95px;}.cls-4{fill:#e5a6ff;}.cls-5,.cls-6{fill:none;}.cls-6{stroke-width:3.89px;}.cls-7{stroke-width:3.54px;}</style></defs><polygon class="cls-1" points="217.62 12.52 9.4 12.52 9.4 62.95 9.4 254.9 169.61 254.9 169.93 254.9 217.62 198.75 217.82 198.81 217.82 12.52 217.62 12.52"/><polygon class="cls-2" points="207.92 2.83 2.83 2.83 2.83 245.84 160.48 245.84 207.72 189.54 207.92 2.83"/><polygon class="cls-3" points="204.81 190.39 158.2 190.39 158.2 245.81 158.51 245.81 204.81 190.39"/><rect class="cls-4" x="2.83" y="2.83" width="204.89" height="50.56"/><line class="cls-5" x1="24.9" y1="88.54" x2="80.71" y2="88.61"/><line class="cls-5" x1="24.9" y1="126.28" x2="99.81" y2="126.28"/><line class="cls-5" x1="23.49" y1="164.72" x2="181.37" y2="164.72"/><line class="cls-5" x1="24.92" y1="198.57" x2="117.48" y2="198.56"/><rect class="cls-4" x="126.67" y="71.11" width="53.38" height="67.7"/><line class="cls-6" x1="127.56" y1="112.83" x2="139.93" y2="103.28"/><line class="cls-6" x1="140.42" y1="103.79" x2="155.48" y2="116.72"/><line class="cls-6" x1="149.12" y1="123.79" x2="165.1" y2="111.67"/><line class="cls-6" x1="165.58" y1="112.17" x2="178.82" y2="123.43"/><circle class="cls-7" cx="164.85" cy="87.2" r="6.89"/></svg>